<svg id="visual" viewBox="0 0 960 300" width="960" height="300" xmlns="http://www.w3.org/2000/svg" xmlns:xlink="http://www.w3.org/1999/xlink" version="1.1"><path d="M0 140L16 142C32 144 64 148 96 150.2C128 152.3 160 152.7 192 150.3C224 148 256 143 288 146.8C320 150.7 352 163.3 384 162C416 160.7 448 145.3 480 139.8C512 134.3 544 138.7 576 130.5C608 122.3 640 101.7 672 107.2C704 112.7 736 144.3 768 149.8C800 155.3 832 134.7 864 131.8C896 129 928 144 944 151.5L960 159L960 301L944 301C928 301 896 301 864 301C832 301 800 301 768 301C736 301 704 301 672 301C640 301 608 301 576 301C544 301 512 301 480 301C448 301 416 301 384 301C352 301 320 301 288 301C256 301 224 301 192 301C160 301 128 301 96 301C64 301 32 301 16 301L0 301Z" fill="#26383b"></path><path d="M0 148L16 155C32 162 64 176 96 177.8C128 179.7 160 169.3 192 166.8C224 164.3 256 169.7 288 173.2C320 176.7 352 178.3 384 186.3C416 194.3 448 208.7 480 211.3C512 214 544 205 576 191.3C608 177.7 640 159.3 672 162.3C704 165.3 736 189.7 768 199.2C800 208.7 832 203.3 864 190.8C896 178.3 928 158.7 944 148.8L960 139L960 301L944 301C928 301 896 301 864 301C832 301 800 301 768 301C736 301 704 301 672 301C640 301 608 301 576 301C544 301 512 301 480 301C448 301 416 301 384 301C352 301 320 301 288 301C256 301 224 301 192 301C160 301 128 301 96 301C64 301 32 301 16 301L0 301Z" fill="#263234"></path><path d="M0 206L16 207.3C32 208.7 64 211.3 96 213.2C128 215 160 216 192 214.3C224 212.7 256 208.3 288 198C320 187.7 352 171.3 384 169.2C416 167 448 179 480 188.8C512 198.7 544 206.3 576 213.2C608 220 640 226 672 231.3C704 236.7 736 241.3 768 242.8C800 244.3 832 242.7 864 240.3C896 238 928 235 944 233.5L960 232L960 301L944 301C928 301 896 301 864 301C832 301 800 301 768 301C736 301 704 301 672 301C640 301 608 301 576 301C544 301 512 301 480 301C448 301 416 301 384 301C352 301 320 301 288 301C256 301 224 301 192 301C160 301 128 301 96 301C64 301 32 301 16 301L0 301Z" fill="#252d2e"></path><path d="M0 266L16 258.3C32 250.7 64 235.3 96 222.8C128 210.3 160 200.7 192 204C224 207.3 256 223.7 288 230.2C320 236.7 352 233.3 384 230.8C416 228.3 448 226.7 480 228.3C512 230 544 235 576 233.3C608 231.7 640 223.3 672 217.2C704 211 736 207 768 206.5C800 206 832 209 864 219.8C896 230.7 928 249.3 944 258.7L960 268L960 301L944 301C928 301 896 301 864 301C832 301 800 301 768 301C736 301 704 301 672 301C640 301 608 301 576 301C544 301 512 301 480 301C448 301 416 301 384 301C352 301 320 301 288 301C256 301 224 301 192 301C160 301 128 301 96 301C64 301 32 301 16 301L0 301Z" fill="#242728"></path><path d="M0 229L16 235.2C32 241.3 64 253.7 96 255C128 256.3 160 246.7 192 243.8C224 241 256 245 288 250.8C320 256.7 352 264.3 384 270.3C416 276.3 448 280.7 480 283C512 285.3 544 285.7 576 286C608 286.3 640 286.7 672 281.5C704 276.3 736 265.7 768 257.5C800 249.3 832 243.7 864 244.5C896 245.3 928 252.7 944 256.3L960 260L960 301L944 301C928 301 896 301 864 301C832 301 800 301 768 301C736 301 704 301 672 301C640 301 608 301 576 301C544 301 512 301 480 301C448 301 416 301 384 301C352 301 320 301 288 301C256 301 224 301 192 301C160 301 128 301 96 301C64 301 32 301 16 301L0 301Z" fill="#222222"></path></svg>