<svg id="visual" viewBox="0 0 960 300" width="960" height="300" xmlns="http://www.w3.org/2000/svg" xmlns:xlink="http://www.w3.org/1999/xlink" version="1.1"><path d="M0 135L20 121.3C40 107.7 80 80.3 120 81.5C160 82.7 200 112.3 240 132.7C280 153 320 164 360 161.8C400 159.7 440 144.3 480 122.7C520 101 560 73 600 81.8C640 90.7 680 136.3 720 148.3C760 160.3 800 138.7 840 138.5C880 138.3 920 159.7 940 170.3L960 181L960 0L940 0C920 0 880 0 840 0C800 0 760 0 720 0C680 0 640 0 600 0C560 0 520 0 480 0C440 0 400 0 360 0C320 0 280 0 240 0C200 0 160 0 120 0C80 0 40 0 20 0L0 0Z" fill="#222222"></path></svg>